<?xml version="1.0" standalone="no"?><!DOCTYPE svg PUBLIC "-//W3C//DTD SVG 1.1//EN" "http://www.w3.org/Graphics/SVG/1.1/DTD/svg11.dtd"><svg t="1652245993554" class="icon" viewBox="0 0 1024 1024" version="1.1" xmlns="http://www.w3.org/2000/svg" p-id="1747" width="256" height="256" xmlns:xlink="http://www.w3.org/1999/xlink"><defs><style type="text/css">@font-face { font-family: feedback-iconfont; src: url("//at.alicdn.com/t/font_1031158_u69w8yhxdu.woff2?t=1630033759944") format("woff2"), url("//at.alicdn.com/t/font_1031158_u69w8yhxdu.woff?t=1630033759944") format("woff"), url("//at.alicdn.com/t/font_1031158_u69w8yhxdu.ttf?t=1630033759944") format("truetype"); }
</style></defs><path d="M779.6 96.5S673.9 190.4 682.1 217c8.2 26.7 26.5 76.1 36.7 76.1 10.2 0 50.4-14.6 58.7-72.1 10.2-59.4 2.1-109.2 2.1-109.2V96.5zM678 353.3s11.2-52.9 83-59.2c71.8-4.1 91.1-10.7 114.9-34.1C893 243.2 798 364.6 767.2 376.9c-30.9 14.5-88.3 8.3-80-34.8l-9.2 11.2z m-48.4 92.4s14.5-41.5 72-37.4c57.4 2 114.2-23.1 119-27.1 12.5-10.5-80 106.7-114.9 121-34.9 14.3-57.4 18.4-65.6 8.2-6.2-10.2-24.6-51.3-2.1-75.8l-8.4 11.1z m-55.8 125.4s12.9-37.7 60-37.7c47.2-2 86.6-1.7 110.8-23 29-25.6-4.1 32.9-30.8 59.5-28.8 26.6-32.9 55.4-67.7 57.4-32.9 2-71.8 18.4-73.8-2-2-18.4-7.3-41.9-1.2-48l2.7-6.2z m-38.4 107.6c10.2-8.2 32.9-16.4 57.4-14.3 24.6 2.1 91.9-6.1 108.7-24.6 11.6-12.8-34.9 49.3-63.6 75.9-28.8 26.6-65.6 59.5-98.5 41.1-30.7-18.6-46.3-33.2-4-78.1z m73.8-558.1s17.2 107.8 52.1 136.6c37 26.6 15.7 70.6 5.5 78.8-10.2 6.1-63.6 24.6-84.2-28.8-18.5-53.3-4.1-157.9 26.6-186.6z m-54 141.5s-1.1 120.6 58.5 150c45.9 22.7-12.6 44.5-20.8 47.1-17.6 5.6-69.7 14.3-73.8-41.1-2.2-55.4-0.9-114.9 36.1-156z m-51.4 166.2s49.6 85 55.7 105.5c6.1 20.5 11.9 41.9-4.5 50.1-16.4 8.2-58.6 14.7-73-9.9-12.3-22.6-44.9-89-1.8-166.9l23.6 21.2z m-64.5 111.1s77 102.3 79.7 120c3.2 21.7-18.2 67.7-44.9 71.8-26.7 4.1-57.7 6.8-57.7-56.8 0-65.6 6.4-103.2 2.3-148.4l20.6 13.4z m26.3 200s46.6 27.7 55.1 27.7c5.5 0-85.3 150.4-85.3 150.4l-18.8 10.7c-5.6-0.1 32.9-133.3 32.9-182.5l16.1-6.3zM233.1 286.5s-13.6 90.5 0.7 102.9c16.4 12.3 37.8 38.7 44.1 34.6 6.1-4.1 34-31.9 13.5-68.8-18.5-36.9-34.6-49.8-34.6-49.8l-23.7-18.9z m41.3 182.9s-4.3-23.4 34.7-54.2c39-32.9 45.1-56.9 45.1-73.3 0-9.1 4 86.6-6.2 109.6-15.4 34.6-43.6 45.3-61.4 24.8l-12.2-6.9z m20.9 65.6s-3.5-13.9 31.4-36.4 46.9-61.9 46.9-72.4c0-9.7 0.2 97.7-11.7 121.8-11.8 23.9-32.3 46.7-42.5 42.6-6.2-2.1-26.1-33-24.1-55.6z m7.4 103.2s10-26.1 36.7-46.7c26.7-20.5 31.9-21.1 41-46.9 5.5-15.5 10.1 28.1 9.8 33.4-2.5 38.8 2 58.8-16.5 73.1-18.4 14.3-31.2 29.5-39.5 19.3-8.2-10.2-20.5-28.7-20.5-34.9v-2.1l-11 4.8z m21.9 89.3c2-8.2 25.3-26.9 39.6-37.2 14.3-10.2 39.5-33.9 38.1-52.3-1.3-16.6 4.1 32.2 0 58.8-6.1 26.6-13.7 68.5-40.4 70.6-24.6 4.1-33.7-31.3-29.6-49.8l-7.7 9.9z m-158.4-336s39 26 69.6 30c29.4 3.8 41.2 45 35.4 52.1-16 19.4-25 37.5-57.9 10.2-31.6-26.2-75.7-74.5-67.5-103.3l20.4 11z m21.5 104.8s45 49.8 86.6 41.6c30.1-5.9-23.5 29.2-15.3 39.4s-14.8 27.4-37.4-3.4c-24.7-30.8-59.4-52-53.2-88.9l19.3 11.3z m18.4 95.2s68.2 26.4 80.5 36.6c12.3 10.2 16.9 16.9 10.7 29.2-6.1 12.3-18.3 31.6-34.7 23.4-18.4-10.2-73.4-29.7-79.6-93.3l23.1 4.1z m-2.5 88.5s95 25 102.4 33.3c10 11.3 21.9 45.8 1.8 60.1-15.4 10.9-24.7 28.4-49.3-8.5-22.5-39-44.9-60.2-65.4-84.9h10.5z m100.5 103s39.6-2.2 45.1-5.8c3.8-2.5 10.3 120.1 10.3 120.1l-6.5 16.6c-2 0-34.8-90.3-53.3-119l4.4-11.9z" fill="#707070" p-id="1748"></path><path d="M767.5 107.5S660.8 204 669 230.6c8.2 26.7 28.8 65.6 39 65.6s51.3-2 59.5-59.5c10.2-59.3 0-129.2 0-129.2z m-90.3 250.4s2-43.1 73.8-49.3c71.8-4.1 100.6-12.3 114.9-32.9 12.3-20.5-77.9 104.6-108.7 116.9-30.8 14.6-88.2 8.4-80-34.7z m-49.3 92.4s6.1-32.9 63.6-28.8c57.4 2 114.9-12.3 119-24.6 6.1-12.3-80 106.7-114.9 121-34.9 14.3-57.4 18.4-65.6 8.2-6.2-10.2-24.6-51.3-2.1-75.8z m-57.4 129.2s6.1-32.9 53.3-32.9c47.2-2 77.9 4.1 110.8-20.5 32.9-24.6-4.1 32.9-30.8 59.5-28.7 26.7-32.8 55.4-67.6 57.4-32.9 2-71.8 18.4-73.8-2-2-18.4-2-51.3 4.1-57.4l4-4.1z m-45.1 114.9c10.2-8.2 32.9-16.4 57.4-14.3 24.6 2.1 94.4-4.1 108.7-24.6 14.3-20.5-34.9 49.3-63.6 75.9-28.8 26.6-65.6 59.5-98.5 41.1-30.7-18.6-24.6-59.7-4-78.1z m73.8-558.1s20.5 104.6 55.4 133.3c37 26.6 12.3 73.8 2.1 82-10.2 6.1-63.6 24.6-84.2-28.8-18.4-53.2-4.1-157.7 26.7-186.5z m-55.3 141.6s8.2 135.4 65.6 147.8c57.4 12.3-26.6 28.8-26.6 49.3 0 18.4-69.7 14.3-73.8-41.1-2.2-55.5-2.2-115 34.8-156z m-63.6 129.3s67.7 119 73.8 139.5c6.1 20.5 14.3 30.8-2 39-16.4 8.2-65.6 28.8-80 4.1-12.4-22.6-34.9-104.7 8.2-182.6z m-61.6 118.9S509 651.2 509 667.7c-2 16.4-8.2 59.5-34.9 63.6-26.7 4.1-67.7 22.5-67.7-41.1-0.1-65.6 16.4-118.9 12.3-164.1z m30.7 219.6s49.2 28.7 57.4 26.6c8.2-2-90.3 155.9-90.3 155.9l-30.8-4.1c2.2 0 63.7-129.2 63.7-178.4zM232 294.3s-22.5 98.5-8.2 110.8c16.4 12.3 43.1 26.6 49.3 22.5 6.1-4.1 30.8-22.5 10.2-59.5-18.5-36.9-51.3-73.8-51.3-73.8z m45.1 182.6s-16.4-26.6 22.5-57.4c39-32.9 53.3-49.3 53.3-65.6 0-16.4-4.1 92.4-16.4 112.8-12.2 18.4-47.1 39-59.4 10.2z m8.2 73.8s-10.2-20.5 24.6-43.1c34.9-22.5 61.5-53.3 59.5-63.6-2-10.2-4.1 94.4-18.4 116.9-14.3 22.5-24.6 34.9-34.9 30.8-6.1-2-32.8-18.4-30.8-41z m18.5 98.5s-8.2-20.5 18.4-41.1c26.7-20.5 47.2-28.8 55.4-57.4 8.2-28.8 10.2 20.5 6.1 47.2-6.1 26.6 2.1 45.2-16.4 59.5-18.4 14.3-34.9 39-43.1 28.7-8.2-10.2-20.5-28.7-20.5-34.9v-2.1h0.1z m18.5 84.2c2-8.2 12.3-22.5 26.6-32.9 14.3-10.2 53.4-41.1 53.4-59.5 0-16.4-2 43.1-6.1 69.7-6.1 26.6-14.3 61.5-41.1 63.6-24.6 4.2-36.9-22.5-32.8-40.9z m-176.5-353s53.3 53.4 84.1 53.4c30.8 2 37 39 32.9 47.2-4.1 8.2-26.6 41.1-59.5 18.4-32.9-24.6-65.7-90.2-57.5-119z m22.6 104.7s57.4 75.9 96.5 59.5c37-16.4-4.1 28.8 4.1 39s-34.9 37-57.4 6.1c-24.7-30.7-49.4-67.7-43.2-104.6z m14.3 100.5s86.2 41.1 98.5 51.3c12.3 10.2 20.5 12.3 14.3 24.6-6.1 12.3-26.6 43.1-43.1 34.9-18.4-10.2-63.5-47.2-69.7-110.8zM193 680s102.6 34.9 106.7 45.2c6.1 10.2 18.4 39 4.1 51.3-14.3 12.3-30.8 41.1-55.4 4.1-22.6-39-34.9-76-55.4-100.6z m106.7 114.9s41.1-2 43.1-8.2c4.1-4.1 10.2 127.2 10.2 127.2l-18.4 10.2c-2.1 0-16.4-100.5-34.9-129.2z m0 0" fill="#707070" p-id="1749"></path></svg>
